<svg width="24" height="24" viewBox="0 0 24 24" fill="none" xmlns="http://www.w3.org/2000/svg">
<path d="M13.5137 3.80604C14.5867 2.73135 16.3274 2.73032 17.4014 3.80409L19.8936 6.29628C20.9579 7.36096 20.9686 9.08419 19.918 10.1625L10.6846 19.6361C9.97911 20.3599 9.01128 20.7679 8.00098 20.768H5.24902C4.04984 20.7678 3.07745 19.8306 3.00488 18.6596L3.00195 18.4232L3.12012 15.6146C3.15961 14.6756 3.55006 13.7844 4.21387 13.1195L13.5137 3.80604ZM20.5146 19.1947C20.9286 19.1947 21.2646 19.5304 21.2646 19.9447C21.2646 20.3591 20.9287 20.6947 20.5146 20.6947H14.3936L14.3164 20.6908C13.9386 20.6522 13.6436 20.333 13.6436 19.9447C13.6436 19.5565 13.9386 19.2373 14.3164 19.1986L14.3936 19.1947H20.5146ZM5.27441 14.181C4.87627 14.5799 4.64186 15.1138 4.61816 15.6771L4.5 18.4857L4.50098 18.5658C4.52557 18.9557 4.84973 19.2677 5.24902 19.268H8.00195C8.60791 19.2678 9.18817 19.0224 9.61133 18.5883L16.1436 11.8851L11.8506 7.59315L5.27441 14.181ZM16.3418 4.86562C15.8536 4.37746 15.062 4.37807 14.5742 4.86659L12.9102 6.53163L17.1904 10.8109L18.8438 9.11561C19.3214 8.62556 19.3176 7.84182 18.834 7.3578L16.3418 4.86562Z" fill="#7B8186"/>
</svg>
