<svg width="46" height="46" viewBox="0 0 46 46" fill="none" xmlns="http://www.w3.org/2000/svg">
<path d="M31.8873 19.11C31.5924 18.81 31.2412 18.5711 30.8539 18.4069C30.4666 18.2426 30.0507 18.1564 29.63 18.1529C29.2094 18.1495 28.7922 18.229 28.4022 18.3869C28.0123 18.5448 27.6573 18.778 27.3575 19.0732C25.8802 20.5258 25.8604 23.4207 27.3126 24.9126C27.7551 25.3661 28.3224 25.6778 28.9424 25.808C29.5624 25.9382 30.2071 25.8811 30.7946 25.6439C31.3842 25.3989 31.8878 24.9846 32.2419 24.4534C32.5961 23.9222 32.7848 23.298 32.7842 22.6596C32.7672 22.2081 32.7821 21.7561 32.8287 21.3067C32.799 20.4825 32.4634 19.6988 31.8873 19.1085V19.11Z" fill="#0C4D88"/>
<path d="M14.3155 24.1632C13.5993 24.1462 12.8881 24.2855 12.2313 24.5714C11.9781 24.6673 11.752 24.8234 11.5725 25.0261C11.393 25.2288 11.2654 25.4721 11.2008 25.7351V25.741C11.112 26.1981 11.2085 26.6718 11.469 27.0578C11.7294 27.4438 12.1326 27.7106 12.5897 27.7993C13.3596 27.9166 14.1467 27.8309 14.8733 27.551C15.5999 27.271 16.241 26.8063 16.7331 26.2028C16.7797 26.1492 16.8108 26.0837 16.8229 26.0137V24.1584C15.947 24.1584 15.131 24.1386 14.3155 24.1632Z" fill="#0C4D88"/>
<path d="M23.0099 0C16.9305 0.00251264 11.0989 2.40976 6.78796 6.69632C2.47703 10.9829 0.0368392 16.8007 2.30858e-06 22.8798C2.30858e-06 22.9166 2.30858e-06 22.9534 2.30858e-06 22.9902C-0.00203537 27.5391 1.34489 31.9864 3.87047 35.7698C6.39605 39.5532 9.98684 42.5027 14.1888 44.2453C18.3907 45.988 23.015 46.4455 27.477 45.5601C31.9389 44.6746 36.0381 42.486 39.2562 39.2709C42.4742 36.0558 44.6666 31.9587 45.556 27.4976C46.4455 23.0366 45.9921 18.4119 44.2532 14.2086C42.5142 10.0052 39.5679 6.41184 35.7867 3.88294C32.0055 1.35403 27.5593 0.00314342 23.0103 0.00110488L23.0099 0ZM20.3737 30.0225C20.3737 30.4553 20.3737 30.4553 19.9321 30.4553H17.5693C17.3205 30.4604 17.2458 30.3607 17.2211 30.1369C17.1762 29.7292 17.1107 29.3214 17.0419 28.8489C16.4923 29.5471 15.7399 30.0579 14.8881 30.311C14.0509 30.6093 13.163 30.7395 12.2753 30.6943C11.3877 30.6491 10.5177 30.4293 9.71503 30.0475C9.05651 29.7349 8.50029 29.2416 8.11113 28.6252C7.72197 28.0088 7.51585 27.2946 7.51675 26.5656C7.42695 24.5264 8.42175 23.1139 10.4114 22.323C11.4283 21.9311 12.5102 21.7353 13.6 21.7459H16.5248C16.7486 21.7459 16.8332 21.6963 16.8332 21.4515C16.803 21.0287 16.8233 20.6006 16.7784 20.1782C16.7592 19.6987 16.5674 19.2423 16.2383 18.8931C15.9092 18.544 15.465 18.3255 14.9875 18.278C14.2507 18.1371 13.4905 18.1798 12.7741 18.4024C12.3357 18.517 11.9405 18.7576 11.6374 19.0944C11.3342 19.4312 11.1363 19.8494 11.0683 20.2974C11.0326 20.3988 11.0079 20.5038 10.9947 20.6106H7.89582C8.01507 20.0538 8.08463 19.5562 8.24399 19.059C8.47342 18.2613 8.9034 17.5357 9.49292 16.9515C10.0824 16.3672 10.8118 15.9437 11.6115 15.7214C13.3826 15.1514 15.2897 15.1643 17.0529 15.7582C17.9263 16.0265 18.7006 16.5477 19.2778 17.256C19.8551 17.9642 20.2094 18.8277 20.296 19.7373C20.3549 20.1791 20.3815 20.6246 20.3755 21.0702L20.3737 30.0225ZM34.2015 33.4794C33.0573 34.5885 31.5324 35.2185 29.9389 35.2404C28.3148 35.3931 26.6867 34.9934 25.3179 34.1061C24.746 33.7261 24.256 33.2355 23.8768 32.6632C23.4975 32.0908 23.2367 31.4484 23.1097 30.7736C23.0666 30.5894 23.0449 30.4008 23.0449 30.2117H26.0293C26.0437 30.2757 26.062 30.3387 26.0841 30.4005C26.4422 31.644 27.3675 32.2457 28.5709 32.4548C29.1097 32.5754 29.6695 32.5661 30.204 32.4277C30.7385 32.2894 31.2325 32.0259 31.6451 31.6591C32.2516 31.0927 32.6271 30.3221 32.6996 29.4955C32.7842 28.7392 32.7791 27.9781 32.8188 27.1327L32.63 27.287C30.8888 28.9582 28.8496 29.2169 26.7046 28.3513C24.6904 27.5457 23.5859 25.9142 23.1233 23.8448C22.8719 22.8512 22.822 21.8173 22.9767 20.8041C23.1314 19.791 23.4874 18.819 24.0239 17.9457C24.7595 16.7355 25.921 15.8441 27.2803 15.4466C28.6396 15.049 30.0984 15.1741 31.3702 15.7972C31.9226 16.1352 32.4531 16.5079 32.9583 16.913L33.0974 15.5005H36.0818V28.6266C36.1164 29.521 35.9673 30.413 35.644 31.2476C35.3206 32.0822 34.8297 32.8417 34.2015 33.4794Z" fill="#0C4D88"/>
</svg>
