<svg width="80" height="80" viewBox="0 0 80 80" fill="none" xmlns="http://www.w3.org/2000/svg">
<path d="M55.6673 63.2662H24.334C22.934 63.2662 21.3673 62.1662 20.9007 60.8329L7.10066 22.2329C5.134 16.6995 7.434 14.9995 12.1673 18.3995L25.1673 27.6995C27.334 29.1995 29.8007 28.4329 30.734 25.9995L36.6007 10.3662C38.4673 5.36621 41.5673 5.36621 43.434 10.3662L49.3007 25.9995C50.234 28.4329 52.7007 29.1995 54.834 27.6995L67.034 18.9995C72.234 15.2662 74.734 17.1662 72.6007 23.1995L59.134 60.8995C58.634 62.1662 57.0673 63.2662 55.6673 63.2662Z" stroke="#0C4D88" stroke-width="1.5" stroke-linecap="round" stroke-linejoin="round"/>
<path d="M21.666 73.333H58.3327" stroke="#0C4D88" stroke-width="1.5" stroke-linecap="round" stroke-linejoin="round"/>
<path d="M31.666 46.667H48.3327" stroke="#0C4D88" stroke-width="1.5" stroke-linecap="round" stroke-linejoin="round"/>
</svg>
