<svg width="81" height="80" viewBox="0 0 81 80" fill="none" xmlns="http://www.w3.org/2000/svg">
<path d="M58.0839 73.3329C66.9205 73.3329 74.0839 66.1695 74.0839 57.333C74.0839 48.4964 66.9205 41.333 58.0839 41.333C49.2474 41.333 42.084 48.4964 42.084 57.333C42.084 66.1695 49.2474 73.3329 58.0839 73.3329Z" stroke="#0C4D88" stroke-width="1.5" stroke-miterlimit="10" stroke-linecap="round" stroke-linejoin="round"/>
<path d="M64.0506 57.5322H52.1172" stroke="#0C4D88" stroke-width="1.5" stroke-miterlimit="10" stroke-linecap="round" stroke-linejoin="round"/>
<path d="M58.084 51.6992V63.6658" stroke="#0C4D88" stroke-width="1.5" stroke-miterlimit="10" stroke-linecap="round" stroke-linejoin="round"/>
<path d="M74.0827 28.9664C74.0827 35.5331 72.3827 41.333 69.716 46.3663C66.7827 43.2663 62.6494 41.3332 58.0827 41.3332C49.2494 41.3332 42.0828 48.4998 42.0828 57.3331C42.0828 61.4331 43.6494 65.1665 46.1827 67.9998C44.9494 68.5665 43.816 69.0331 42.816 69.3664C41.6827 69.7664 39.816 69.7664 38.6827 69.3664C29.016 66.0664 7.41602 52.2998 7.41602 28.9664C7.41602 18.6664 15.716 10.333 25.9493 10.333C31.9827 10.333 37.3827 13.2665 40.7494 17.7665C44.116 13.2665 49.516 10.333 55.5494 10.333C65.7827 10.333 74.0827 18.6664 74.0827 28.9664Z" stroke="#0C4D88" stroke-width="1.5" stroke-linecap="round" stroke-linejoin="round"/>
</svg>
