<svg width="30" height="29" viewBox="0 0 30 29" fill="none" xmlns="http://www.w3.org/2000/svg">
<path d="M21.7012 4.62695C16.857 0.199397 8.98488 0.199477 4.14062 4.62695C2.67073 5.97044 1.36905 7.96592 0.801757 10.1719C0.233522 12.3818 0.395625 14.836 1.91211 17.0664C1.99273 17.185 2.04829 17.2668 2.08887 17.3301C2.10922 17.3618 2.1222 17.3832 2.12988 17.3965L2.14648 17.4258L2.15918 17.4561C2.16577 17.472 2.17101 17.4872 2.17578 17.501L2.2041 17.5811L2.20312 17.667C2.20304 17.6836 2.20264 17.7022 2.20117 17.7227L2.19922 17.7529L2.19336 17.7832C2.1906 17.7972 2.186 17.8163 2.17969 17.8418L2.11328 18.085L2.10351 18.1182C1.91657 18.7774 1.77045 19.2936 1.68555 19.7051C1.59965 20.1214 1.56536 20.4778 1.63769 20.8027C1.86261 21.8129 2.73864 22.6381 3.90722 22.8555C4.28991 22.9266 4.70183 22.8918 5.16211 22.8125C5.61786 22.7339 6.18825 22.5993 6.9082 22.4287L6.94433 22.4199C7.06584 22.3911 7.14468 22.3721 7.20605 22.3594C7.23196 22.354 7.25061 22.3508 7.26367 22.3486L7.28906 22.3447L7.31543 22.3428C7.33334 22.3417 7.34917 22.341 7.36328 22.3408L7.4375 22.3408L7.50879 22.3613C7.52048 22.3648 7.53363 22.3691 7.54785 22.374L7.57617 22.3838L7.60351 22.3965C7.61702 22.403 7.63897 22.4146 7.67285 22.4326C7.74175 22.4693 7.83155 22.5196 7.96289 22.5937C8.78503 23.0581 9.64119 23.383 10.5098 23.5889L10.6797 23.6289L10.7871 23.7666C11.1084 24.1751 11.4706 24.5658 11.873 24.9336C13.0501 26.0093 14.8708 27.0014 16.9053 27.4463C18.9497 27.8933 21.2465 27.7933 23.3115 26.627C23.416 26.5679 23.4869 26.528 23.541 26.499L23.7031 26.4121L23.8838 26.4512C23.9275 26.4607 23.9852 26.474 24.0703 26.4941L24.1055 26.5029C24.6946 26.6425 25.1667 26.7541 25.5449 26.8193C25.9275 26.8853 26.2829 26.9168 26.6182 26.8545C27.6223 26.6677 28.3701 25.9595 28.5615 25.0996C28.6242 24.818 28.5937 24.5133 28.5225 24.168C28.4521 23.8272 28.3309 23.4003 28.1777 22.8604L28.1689 22.8281C28.1467 22.7496 28.1309 22.695 28.1201 22.6533L28.0654 22.4414L28.1836 22.2568C28.2158 22.2069 28.2607 22.1417 28.3252 22.0469C29.5879 20.1894 29.7206 18.1485 29.249 16.3145C28.7784 14.4841 27.699 12.8272 26.4766 11.71C26.1067 11.372 25.7151 11.0646 25.3057 10.7881L25.1367 10.6748L25.0957 10.4756C24.6501 8.33953 23.5214 6.29068 21.7012 4.62695ZM12.6787 12.3223C15.8478 9.42571 20.7347 9.08791 24.3037 11.291C24.7845 11.5878 25.2425 11.9316 25.6699 12.3223C26.7582 13.3169 27.7497 14.8259 28.1807 16.502C28.6106 18.1744 28.4757 19.9809 27.374 21.6016C27.3638 21.6166 27.353 21.6325 27.3428 21.6475C27.2391 21.7992 27.1522 21.9291 27.1064 22.0342C27.0193 22.2344 26.9911 22.4047 27.0088 22.6162C27.0181 22.7272 27.0522 22.8524 27.0928 22.9941C27.0965 23.0072 27.1008 23.021 27.1045 23.0342C27.265 23.6002 27.3795 24.0054 27.4443 24.3193C27.5091 24.6333 27.5139 24.8129 27.4863 24.9365C27.3655 25.479 26.9138 25.8672 26.3838 25.9658C26.2761 25.9859 26.1027 25.9852 25.7637 25.9268C25.4256 25.8685 24.9875 25.7653 24.3662 25.6182C24.3518 25.6148 24.3368 25.6109 24.3223 25.6074C24.1694 25.5709 24.0205 25.5369 23.8848 25.5273C23.6305 25.5094 23.4244 25.538 23.1895 25.623C23.0654 25.668 22.9166 25.7503 22.752 25.8437C22.7352 25.8533 22.7187 25.8637 22.7021 25.873C20.9531 26.861 18.9923 26.962 17.1787 26.5654C15.3559 26.1668 13.7179 25.2711 12.6787 24.3213C12.2247 23.9063 11.8276 23.4578 11.4873 22.9853C9.11283 19.6884 9.52027 15.2093 12.6787 12.3223ZM4.94727 5.23926C9.35591 1.20999 16.4859 1.20991 20.8945 5.23926C22.068 6.31181 22.9337 7.56427 23.4873 8.9043L23.9121 9.93359L22.8604 9.56738C19.1646 8.2816 14.8338 9.004 11.873 11.71C9.02388 14.3141 8.21113 18.0491 9.40234 21.2959L9.85937 22.54L8.69433 21.9072C8.65369 21.8851 8.61281 21.8627 8.57226 21.8398C8.55248 21.8287 8.5323 21.8168 8.51269 21.8057C8.30864 21.69 8.13936 21.5957 7.99902 21.5449C7.73124 21.448 7.50048 21.4161 7.21094 21.4365C7.05763 21.4473 6.88968 21.486 6.70019 21.5312C6.68323 21.5353 6.66552 21.5399 6.64844 21.5439C5.89572 21.7223 5.35895 21.8483 4.94336 21.9199C4.52624 21.9918 4.29637 21.9956 4.1416 21.9668C3.44729 21.8375 2.86718 21.3323 2.71289 20.6396C2.67578 20.473 2.68415 20.2419 2.76367 19.8564C2.84309 19.4717 2.9832 18.977 3.17773 18.291C3.18219 18.2753 3.186 18.2587 3.19043 18.2432C3.24056 18.0676 3.28035 17.9249 3.29101 17.7978C3.31143 17.554 3.27907 17.3602 3.17871 17.1299C3.12636 17.0099 3.02738 16.8623 2.89941 16.6748C2.88737 16.6572 2.87542 16.639 2.86328 16.6211C1.50773 14.6274 1.34441 12.4077 1.87109 10.3594C2.39871 8.30782 3.61152 6.46013 4.94727 5.23926Z" fill="#F8F8F9" stroke="#F8F8F9"/>
</svg>
