<svg width="31" height="29" viewBox="0 0 31 29" fill="none" xmlns="http://www.w3.org/2000/svg">
<path d="M22.2012 4.62744C17.357 0.199885 9.48488 0.199965 4.64062 4.62744C3.17073 5.97093 1.86905 7.96641 1.30176 10.1724C0.733522 12.3823 0.895625 14.8365 2.41211 17.0669C2.49273 17.1855 2.54829 17.2673 2.58887 17.3306C2.60922 17.3623 2.6222 17.3837 2.62988 17.397L2.64648 17.4263L2.65918 17.4565C2.66577 17.4725 2.67101 17.4877 2.67578 17.5015L2.7041 17.5815L2.70312 17.6675C2.70304 17.6841 2.70264 17.7027 2.70117 17.7231L2.69922 17.7534L2.69336 17.7837C2.6906 17.7977 2.686 17.8168 2.67969 17.8423L2.61328 18.0854L2.60351 18.1186C2.41657 18.7779 2.27045 19.2941 2.18555 19.7056C2.09965 20.1219 2.06536 20.4783 2.13769 20.8032C2.36261 21.8134 3.23864 22.6386 4.40722 22.856C4.78991 22.9271 5.20183 22.8923 5.66211 22.813C6.11786 22.7344 6.68825 22.5998 7.4082 22.4292L7.44433 22.4204C7.56584 22.3916 7.64468 22.3726 7.70605 22.3599C7.73196 22.3545 7.75061 22.3513 7.76367 22.3491L7.78906 22.3452L7.81543 22.3433C7.83334 22.3422 7.84917 22.3414 7.86328 22.3413L7.9375 22.3413L8.00879 22.3618C8.02048 22.3652 8.03363 22.3696 8.04785 22.3745L8.07617 22.3843L8.10351 22.397C8.11702 22.4035 8.13897 22.4151 8.17285 22.4331C8.24175 22.4698 8.33155 22.5201 8.46289 22.5942C9.28503 23.0586 10.1412 23.3835 11.0098 23.5894L11.1797 23.6294L11.2871 23.7671C11.6084 24.1756 11.9706 24.5663 12.373 24.9341C13.5501 26.0098 15.3708 27.0019 17.4053 27.4468C19.4497 27.8938 21.7465 27.7938 23.8115 26.6274C23.916 26.5684 23.9869 26.5285 24.041 26.4995L24.2031 26.4126L24.3838 26.4517C24.4275 26.4612 24.4852 26.4745 24.5703 26.4946L24.6055 26.5034C25.1946 26.643 25.6667 26.7546 26.0449 26.8198C26.4275 26.8857 26.7829 26.9173 27.1182 26.855C28.1223 26.6682 28.8701 25.96 29.0615 25.1001C29.1242 24.8185 29.0937 24.5138 29.0225 24.1685C28.9521 23.8277 28.8309 23.4008 28.6777 22.8608L28.6689 22.8286C28.6467 22.7501 28.6309 22.6955 28.6201 22.6538L28.5654 22.4419L28.6836 22.2573C28.7158 22.2073 28.7607 22.1422 28.8252 22.0474C30.0879 20.1899 30.2206 18.149 29.749 16.3149C29.2784 14.4846 28.199 12.8277 26.9766 11.7104C26.6067 11.3725 26.2151 11.0651 25.8057 10.7886L25.6367 10.6753L25.5957 10.4761C25.1501 8.34002 24.0214 6.29117 22.2012 4.62744ZM13.1787 12.3228C16.3478 9.4262 21.2347 9.0884 24.8037 11.2915C25.2845 11.5883 25.7425 11.9321 26.1699 12.3228C27.2582 13.3174 28.2497 14.8264 28.6807 16.5024C29.1106 18.1749 28.9757 19.9814 27.874 21.6021C27.8638 21.6171 27.853 21.633 27.8428 21.6479C27.7391 21.7997 27.6522 21.9296 27.6064 22.0347C27.5193 22.2348 27.4911 22.4052 27.5088 22.6167C27.5181 22.7277 27.5522 22.8529 27.5928 22.9946C27.5965 23.0077 27.6008 23.0215 27.6045 23.0347C27.765 23.6007 27.8795 24.0059 27.9443 24.3198C28.0091 24.6338 28.0139 24.8133 27.9863 24.937C27.8655 25.4795 27.4138 25.8676 26.8838 25.9663C26.7761 25.9863 26.6027 25.9857 26.2637 25.9272C25.9256 25.869 25.4875 25.7658 24.8662 25.6187C24.8518 25.6152 24.8368 25.6114 24.8223 25.6079C24.6694 25.5714 24.5205 25.5374 24.3848 25.5278C24.1305 25.5099 23.9244 25.5385 23.6895 25.6235C23.5654 25.6685 23.4166 25.7508 23.252 25.8442C23.2352 25.8537 23.2187 25.8642 23.2021 25.8735C21.4531 26.8614 19.4923 26.9625 17.6787 26.5659C15.8559 26.1673 14.2179 25.2716 13.1787 24.3218C12.7247 23.9068 12.3276 23.4583 11.9873 22.9858C9.61283 19.6889 10.0203 15.2098 13.1787 12.3228ZM5.44727 5.23974C9.85591 1.21048 16.9859 1.2104 21.3945 5.23975C22.568 6.3123 23.4337 7.56475 23.9873 8.90478L24.4121 9.93408L23.3604 9.56787C19.6646 8.28209 15.3338 9.00449 12.373 11.7104C9.52388 14.3146 8.71113 18.0496 9.90234 21.2964L10.3594 22.5405L9.19433 21.9077C9.15369 21.8856 9.11281 21.8632 9.07226 21.8403C9.05248 21.8292 9.0323 21.8173 9.01269 21.8062C8.80864 21.6905 8.63936 21.5962 8.49902 21.5454C8.23124 21.4485 8.00048 21.4166 7.71094 21.437C7.55763 21.4478 7.38968 21.4865 7.20019 21.5317C7.18323 21.5358 7.16552 21.5404 7.14844 21.5444C6.39572 21.7227 5.85895 21.8488 5.44336 21.9204C5.02624 21.9923 4.79637 21.9961 4.6416 21.9673C3.94729 21.838 3.36718 21.3328 3.21289 20.6401C3.17578 20.4735 3.18415 20.2424 3.26367 19.8569C3.34309 19.4721 3.4832 18.9775 3.67773 18.2915C3.68219 18.2758 3.686 18.2592 3.69043 18.2436C3.74056 18.0681 3.78035 17.9254 3.79101 17.7983C3.81143 17.5545 3.77907 17.3607 3.67871 17.1304C3.62636 17.0104 3.52738 16.8628 3.39941 16.6753C3.38737 16.6576 3.37542 16.6394 3.36328 16.6216C2.00773 14.6279 1.84441 12.4082 2.37109 10.3599C2.89871 8.30831 4.11152 6.46062 5.44727 5.23974Z" fill="#F8F8F9" stroke="#F8F8F9"/>
<path d="M14.8916 15.7241C14.816 15.7242 14.7452 15.7442 14.6797 15.7856C14.6142 15.8271 14.5664 15.8849 14.5361 15.9585L12.6367 20.1382C12.6167 20.1841 12.6065 20.23 12.6064 20.2759C12.6064 20.3772 12.6441 20.4604 12.7197 20.5249C12.7903 20.5847 12.8712 20.6147 12.9619 20.6147C13.0375 20.6147 13.1083 20.5936 13.1738 20.5522C13.2344 20.5062 13.2803 20.4485 13.3105 20.3794L13.7646 19.3989L16.0869 19.3989L16.5342 20.3794C16.5644 20.4531 16.6094 20.5108 16.6699 20.5522C16.7304 20.5936 16.7985 20.6147 16.874 20.6147C16.9849 20.6147 17.0685 20.5869 17.124 20.5317C17.1795 20.4719 17.2098 20.3976 17.2148 20.3101C17.2148 20.2779 17.2075 20.241 17.1924 20.1997L15.2705 15.9585C15.2352 15.8803 15.1847 15.8202 15.1191 15.7788C15.0485 15.7374 14.9723 15.7195 14.8916 15.7241ZM15.7832 18.7358L14.0713 18.7358L14.9346 16.8745L15.7832 18.7358Z" fill="#F8F8F9"/>
<path d="M14.8916 15.7241C14.816 15.7242 14.7452 15.7442 14.6797 15.7856C14.6142 15.8271 14.5664 15.8849 14.5361 15.9585L12.6367 20.1382C12.6167 20.1841 12.6065 20.23 12.6064 20.2759C12.6064 20.3772 12.6441 20.4604 12.7197 20.5249C12.7903 20.5847 12.8712 20.6147 12.9619 20.6147C13.0375 20.6147 13.1083 20.5936 13.1738 20.5522C13.2344 20.5062 13.2803 20.4485 13.3105 20.3794L13.7646 19.3989L16.0869 19.3989L16.5342 20.3794C16.5644 20.4531 16.6094 20.5108 16.6699 20.5522C16.7304 20.5936 16.7985 20.6147 16.874 20.6147C16.9849 20.6147 17.0685 20.5869 17.124 20.5317C17.1795 20.4719 17.2098 20.3976 17.2148 20.3101C17.2148 20.2779 17.2075 20.241 17.1924 20.1997L15.2705 15.9585C15.2352 15.8803 15.1847 15.8202 15.1191 15.7788C15.0485 15.7374 14.9723 15.7195 14.8916 15.7241ZM15.7832 18.7358L14.0713 18.7358L14.9346 16.8745L15.7832 18.7358Z" stroke="#F8F8F9"/>
<path d="M17.7051 15.7378C17.5993 15.7378 17.5082 15.7702 17.4326 15.8345C17.3569 15.8989 17.3184 15.9777 17.3184 16.0698C17.3184 16.1203 17.3314 16.173 17.3564 16.228L19.2705 20.3589C19.3109 20.4372 19.3669 20.4949 19.4375 20.5317C19.503 20.5685 19.5711 20.5874 19.6416 20.5874C19.7121 20.5828 19.7802 20.5616 19.8457 20.5249C19.9062 20.4881 19.9549 20.4348 19.9902 20.3657L21.9043 16.228C21.9143 16.2051 21.9217 16.1817 21.9268 16.1587C21.9317 16.1313 21.9345 16.104 21.9346 16.0767C21.9346 15.9707 21.8914 15.8875 21.8057 15.8276C21.7201 15.7679 21.6372 15.7379 21.5566 15.7378C21.3953 15.7378 21.2759 15.8135 21.2002 15.9653L19.5811 19.4712L18.0527 15.9585C17.9822 15.8115 17.8662 15.7379 17.7051 15.7378Z" fill="#F8F8F9"/>
<path d="M17.7051 15.7378C17.5993 15.7378 17.5082 15.7702 17.4326 15.8345C17.3569 15.8989 17.3184 15.9777 17.3184 16.0698C17.3184 16.1203 17.3314 16.173 17.3564 16.228L19.2705 20.3589C19.3109 20.4372 19.3669 20.4949 19.4375 20.5317C19.503 20.5685 19.5711 20.5874 19.6416 20.5874C19.7121 20.5828 19.7802 20.5616 19.8457 20.5249C19.9062 20.4881 19.9549 20.4348 19.9902 20.3657L21.9043 16.228C21.9143 16.2051 21.9217 16.1817 21.9268 16.1587C21.9317 16.1313 21.9345 16.104 21.9346 16.0767C21.9346 15.9707 21.8914 15.8875 21.8057 15.8276C21.7201 15.7679 21.6372 15.7379 21.5566 15.7378C21.3953 15.7378 21.2759 15.8135 21.2002 15.9653L19.5811 19.4712L18.0527 15.9585C17.9822 15.8115 17.8662 15.7379 17.7051 15.7378Z" stroke="#F8F8F9"/>
<path d="M23.8322 16.6495L25.5348 20.3795C25.5651 20.4532 25.6105 20.5108 25.671 20.5522C25.7315 20.5937 25.7996 20.6144 25.8753 20.6144C25.9863 20.6144 26.0695 20.5868 26.125 20.5315C26.1805 20.4716 26.2108 20.398 26.2158 20.3105C26.2158 20.2782 26.2083 20.2414 26.1931 20.1999L24.2711 15.9587C24.2358 15.8804 24.1853 15.8205 24.1198 15.7791C24.0491 15.7377 23.9735 15.7192 23.8927 15.7238C23.8171 15.7238 23.7464 15.7446 23.6809 15.786C23.6153 15.8274 23.5674 15.885 23.5371 15.9587L21.6378 20.1378C21.6176 20.1838 21.6075 20.2299 21.6075 20.2759C21.6075 20.3772 21.6453 20.4601 21.721 20.5246C21.7916 20.5845 21.8723 20.6144 21.9631 20.6144C22.0388 20.6144 22.1094 20.5937 22.175 20.5522C22.2356 20.5062 22.281 20.4486 22.3112 20.3795L24.0289 16.6702L23.8322 16.6495ZM25.2321 19.3987L24.8916 18.7355L22.7501 18.7355L22.6215 19.3987L25.2321 19.3987Z" fill="#F8F8F9"/>
</svg>
