<svg width="23" height="31" viewBox="0 0 23 31" fill="none" xmlns="http://www.w3.org/2000/svg">
<path d="M10.3125 0.597655C4.99442 0.59768 0.599729 4.63158 0.599609 9.71191C0.599708 12.5607 1.99147 15.0815 4.13574 16.7412L3.79297 19.5166L3.79199 19.5186C3.61737 20.968 5.17764 22.0075 6.44238 21.2471L6.44238 21.248L10.5254 18.8213C10.8149 18.8159 11.1013 18.7994 11.3848 18.7725C12.4929 19.9367 14.0876 20.672 15.8525 20.7275L18.334 22.2021L18.335 22.2012C19.333 22.8035 20.5469 21.964 20.416 20.8506L20.415 20.8437L20.2158 19.2734C21.5483 18.1925 22.4004 16.585 22.4004 14.7764C22.4002 12.873 21.4615 11.1938 20.0166 10.1133C20.0228 9.97863 20.0254 9.84486 20.0254 9.71191C20.0253 4.63159 15.6306 0.597705 10.3125 0.597655ZM16.0674 10.3096C17.0815 10.3096 18.0091 10.5934 18.7812 11.085C18.7957 11.0941 18.8109 11.102 18.8252 11.1113L18.8311 11.1152C20.0966 11.9239 20.9002 13.2688 20.9004 14.7764C20.9004 16.215 20.1652 17.5061 18.9893 18.3223C18.7598 18.4817 18.6377 18.756 18.6728 19.0332L18.8965 20.791L16.4502 19.3389L16.3603 19.2939C16.268 19.2548 16.1683 19.2344 16.0674 19.2344C14.4993 19.2343 13.1195 18.5478 12.2607 17.5068L12.2539 17.498C12.1332 17.3561 12.022 17.2073 11.9209 17.0527C11.7862 16.8468 11.6693 16.6304 11.5723 16.4053C11.5238 16.2928 11.4808 16.178 11.4424 16.0615C11.3846 15.8865 11.3376 15.7074 11.3037 15.5244C11.2811 15.4026 11.2644 15.2791 11.2529 15.1543C11.2472 15.0921 11.2431 15.0296 11.2402 14.9668C11.2373 14.9036 11.2354 14.8401 11.2354 14.7764C11.2354 14.5493 11.2541 14.3255 11.29 14.1064C11.3285 13.8723 11.3873 13.6437 11.4639 13.4219C11.5066 13.2979 11.5545 13.1759 11.6084 13.0566C11.8489 12.5247 12.198 12.0426 12.6318 11.6357C12.7451 11.5295 12.8639 11.4284 12.9883 11.333C13.6984 10.7882 14.5831 10.4257 15.5654 10.333C15.6478 10.3252 15.7308 10.3194 15.8145 10.3154L16.0674 10.3096ZM10.3125 2.09766C14.7373 2.0977 18.2645 5.313 18.5107 9.26953C18.2293 9.1582 17.9381 9.06598 17.6387 8.99414C17.6351 8.99327 17.6315 8.99207 17.6279 8.99121C17.3351 8.9215 17.0345 8.87148 16.7275 8.8418C16.7109 8.84019 16.6944 8.8384 16.6777 8.83691C16.5894 8.82903 16.5005 8.82281 16.4111 8.81836C16.401 8.81785 16.391 8.81687 16.3809 8.81641C16.277 8.81169 16.1724 8.80957 16.0674 8.80957C15.7438 8.80959 15.425 8.83237 15.1133 8.87695C15.0096 8.89178 14.9067 8.90918 14.8047 8.92871C14.498 8.98738 14.1989 9.06702 13.9092 9.16601C13.7447 9.22223 13.5838 9.28606 13.4258 9.35449C13.3979 9.36656 13.3695 9.37721 13.3418 9.38965C13.2498 9.43101 13.1589 9.47416 13.0693 9.51953C11.8824 10.1209 10.918 11.0705 10.3369 12.2314C10.2597 12.3858 10.1883 12.5435 10.125 12.7051C9.89402 13.2949 9.76096 13.9306 9.74023 14.5967C9.73838 14.6563 9.73536 14.7162 9.73535 14.7764C9.73535 14.8762 9.73892 14.9755 9.74414 15.0742C9.74637 15.116 9.75075 15.1576 9.7539 15.1992C9.75866 15.2624 9.76463 15.3251 9.77148 15.3877C9.77518 15.4213 9.77793 15.4549 9.78223 15.4883C9.79219 15.5663 9.80422 15.6437 9.81738 15.7207C9.82118 15.7428 9.82406 15.7651 9.82812 15.7871C9.8468 15.889 9.86845 15.9898 9.89258 16.0898C9.89312 16.0921 9.89301 16.0945 9.89355 16.0967C9.91749 16.1954 9.94454 16.2929 9.97363 16.3896C9.9784 16.4054 9.98436 16.4208 9.98926 16.4365C10.0846 16.7436 10.2053 17.0401 10.3496 17.3242L10.3125 17.3252L10.2119 17.332C10.1126 17.3455 10.0165 17.3792 9.92969 17.4307L5.67676 19.958L5.6709 19.9619C5.49579 20.0677 5.25491 19.9322 5.28125 19.7002L5.67676 16.4922C5.71046 16.2172 5.59009 15.9462 5.36328 15.7871C3.37121 14.3908 2.09971 12.1841 2.09961 9.71191C2.09973 5.55557 5.72394 2.09768 10.3125 2.09766Z" fill="#F8F8F9"/>
<path d="M7.5 30.4023L5.10288 24.179C4.99544 23.9103 4.84772 23.7137 4.65971 23.5891C4.4717 23.4646 4.25348 23.4023 4.00504 23.4023C3.7566 23.4023 3.53837 23.4646 3.35036 23.5891C3.15564 23.7071 3.00791 23.9005 2.90719 24.1692L0.499999 30.4023L1.55755 30.4023L2.17194 28.7408L5.85827 28.7408L6.48273 30.4023L7.5 30.4023ZM5.55611 27.9052L2.46403 27.9052L3.72302 24.4936C3.75659 24.4084 3.79353 24.3429 3.83381 24.297C3.8741 24.2511 3.93118 24.2282 4.00504 24.2282C4.07218 24.2282 4.1259 24.2511 4.16619 24.297C4.20647 24.3429 4.24005 24.4084 4.26691 24.4936L5.55611 27.9052Z" fill="#F8F8F9"/>
<path d="M11.506 30.4023C11.7842 30.4023 12.0306 30.3434 12.2452 30.2254C12.4598 30.1008 12.6346 29.9009 12.7697 29.6257L15.5 23.4023L14.2481 23.4023L11.8279 29.2422C11.7722 29.3537 11.7206 29.429 11.6729 29.4684C11.6252 29.5077 11.5695 29.5273 11.506 29.5273C11.4265 29.5273 11.3669 29.5077 11.3271 29.4684C11.2794 29.429 11.2278 29.3537 11.1721 29.2422L8.70417 23.4023L7.5 23.4023L10.2303 29.6257C10.3495 29.8944 10.5204 30.091 10.7429 30.2155C10.9655 30.3401 11.2198 30.4023 11.506 30.4023Z" fill="#F8F8F9"/>
<path d="M22.5 30.4023L20.1029 24.179C19.9954 23.9103 19.8477 23.7137 19.6597 23.5891C19.4717 23.4646 19.2535 23.4023 19.005 23.4023C18.7566 23.4023 18.5384 23.4646 18.3504 23.5891C18.1556 23.7071 18.0079 23.9005 17.9072 24.1692L15.5 30.4023L16.5576 30.4023L17.1719 28.7408L20.8583 28.7408L21.4827 30.4023L22.5 30.4023ZM20.5561 27.9052L17.464 27.9052L18.723 24.4936C18.7566 24.4084 18.7935 24.3429 18.8338 24.297C18.8741 24.2511 18.9312 24.2282 19.005 24.2282C19.0722 24.2282 19.1259 24.2511 19.1662 24.297C19.2065 24.3429 19.24 24.4084 19.2669 24.4936L20.5561 27.9052Z" fill="#F8F8F9"/>
</svg>
