<svg width="40" height="40" viewBox="0 0 40 40" fill="none" xmlns="http://www.w3.org/2000/svg">
<g clip-path="url(#clip0_7520_25918)">
<path d="M36.5505 11.2664L30.9339 33.8164C30.5339 35.4997 29.0339 36.6663 27.3006 36.6663H5.40054C2.88387 36.6663 1.0839 34.1996 1.8339 31.7829L8.85055 9.24976C9.33389 7.68309 10.7839 6.59961 12.4172 6.59961H32.9172C34.5006 6.59961 35.8172 7.56628 36.3672 8.89962C36.6839 9.61628 36.7505 10.433 36.5505 11.2664Z" stroke="#0C4D88" stroke-width="1.5" stroke-miterlimit="10"/>
<path d="M26.666 36.6667H34.6327C36.7827 36.6667 38.466 34.85 38.316 32.7L36.666 10" stroke="#0C4D88" stroke-width="1.5" stroke-miterlimit="10" stroke-linecap="round" stroke-linejoin="round"/>
<path d="M16.1328 10.6335L17.8662 3.43359" stroke="#0C4D88" stroke-width="1.5" stroke-miterlimit="10" stroke-linecap="round" stroke-linejoin="round"/>
<path d="M27.3008 10.6503L28.8675 3.41699" stroke="#0C4D88" stroke-width="1.5" stroke-miterlimit="10" stroke-linecap="round" stroke-linejoin="round"/>
<path d="M12.834 20H26.1673" stroke="#0C4D88" stroke-width="1.5" stroke-miterlimit="10" stroke-linecap="round" stroke-linejoin="round"/>
<path d="M11.166 26.667H24.4993" stroke="#0C4D88" stroke-width="1.5" stroke-miterlimit="10" stroke-linecap="round" stroke-linejoin="round"/>
</g>
<defs>
<clipPath id="clip0_7520_25918">
<rect width="40" height="40" fill="white"/>
</clipPath>
</defs>
</svg>
