<svg width="24" height="25" viewBox="0 0 24 25" fill="none" xmlns="http://www.w3.org/2000/svg">
<path d="M15.5 1.11523H7.5C6.12 1.11523 5 2.23523 5 3.61523V20.6152C5 21.9952 6.12 23.1152 7.5 23.1152H15.5C16.88 23.1152 18 21.9952 18 20.6152V3.61523C18 2.23523 16.88 1.11523 15.5 1.11523ZM11.5 22.1152C10.67 22.1152 10 21.4452 10 20.6152C10 19.7852 10.67 19.1152 11.5 19.1152C12.33 19.1152 13 19.7852 13 20.6152C13 21.4452 12.33 22.1152 11.5 22.1152ZM16 18.1152H7V4.11523H16V18.1152Z" fill="#231F20"/>
</svg>
