<svg width="24" height="24" viewBox="0 0 24 24" fill="none" xmlns="http://www.w3.org/2000/svg">
<path d="M6 22C5.46957 22 4.96086 21.7893 4.58579 21.4142C4.21071 21.0391 4 20.5304 4 20V4C4 3.46957 4.21071 2.96086 4.58579 2.58579C4.96086 2.21072 5.46957 2 6 2H14C14.3166 1.99949 14.6301 2.06161 14.9225 2.18277C15.215 2.30394 15.4806 2.48176 15.704 2.706L19.292 6.294C19.5168 6.51751 19.6952 6.78335 19.8167 7.07616C19.9382 7.36898 20.0005 7.68297 20 8V20C20 20.5304 19.7893 21.0391 19.4142 21.4142C19.0391 21.7893 18.5304 22 18 22H6Z" stroke="#F8F8F9" stroke-width="1.66667" stroke-linecap="round" stroke-linejoin="round"/>
<path d="M14 2V7C14 7.26522 14.1054 7.51957 14.2929 7.70711C14.4804 7.89464 14.7348 8 15 8H20" stroke="#F8F8F9" stroke-width="1.66667" stroke-linecap="round" stroke-linejoin="round"/>
<path d="M15.033 13.4401C15.1312 13.4969 15.2127 13.5786 15.2694 13.6769C15.3261 13.7751 15.356 13.8866 15.356 14.0001C15.356 14.1135 15.3261 14.225 15.2694 14.3233C15.2127 14.4216 15.1312 14.5033 15.033 14.5601L10.968 16.9121C10.8698 16.9689 10.7584 16.9988 10.645 16.9988C10.5316 16.9988 10.4202 16.9689 10.322 16.9121C10.2238 16.8553 10.1424 16.7736 10.0858 16.6753C10.0293 16.577 9.9997 16.4655 10 16.3521V11.6481C9.9998 11.5348 10.0294 11.4235 10.0859 11.3253C10.1424 11.2271 10.2237 11.1456 10.3218 11.0888C10.4198 11.032 10.531 11.0021 10.6443 11.002C10.7576 11.0018 10.8689 11.0315 10.967 11.0881L15.033 13.4401Z" stroke="#F8F8F9" stroke-width="1.66667" stroke-linecap="round" stroke-linejoin="round"/>
</svg>
