<svg width="24" height="24" viewBox="0 0 24 24" fill="none" xmlns="http://www.w3.org/2000/svg">
<path d="M10.4863 3.80616C9.41321 2.73147 7.67253 2.73045 6.59858 3.80421L4.10639 6.29639C3.04194 7.36115 3.03118 9.08432 4.08198 10.1626L13.3154 19.6362C14.0209 20.36 14.9886 20.7681 15.999 20.7681L18.7499 20.7681C20.029 20.768 21.0505 19.7022 20.997 18.4233L20.8798 15.6138C20.8403 14.6749 20.4498 13.7844 19.7861 13.1196L10.4863 3.80616ZM3.4853 19.1948C3.07131 19.1948 2.7354 19.5305 2.7353 19.9448C2.7353 20.3592 3.07124 20.6948 3.4853 20.6948L9.60639 20.6948C10.0204 20.6948 10.3564 20.3592 10.3564 19.9448C10.3563 19.5305 10.0204 19.1948 9.60639 19.1948L3.4853 19.1948ZM18.7255 14.1802C19.1238 14.5791 19.3581 15.1138 19.3818 15.6773L19.4999 18.4858C19.5179 18.9121 19.1771 19.2668 18.7509 19.2671L15.998 19.2681C15.3919 19.268 14.8109 19.0226 14.3876 18.5884L7.85639 11.8853L12.1484 7.59327L18.7255 14.1802ZM7.65815 4.86573C8.1463 4.37758 8.93794 4.37819 9.42573 4.86671L11.0888 6.53077L6.80952 10.811L5.1562 9.11573C4.67856 8.62567 4.68229 7.84194 5.16596 7.35792L7.65815 4.86573Z" fill="#F1F4F6"/>
</svg>
