<svg width="80" height="80" viewBox="0 0 80 80" fill="none" xmlns="http://www.w3.org/2000/svg">
<path d="M73.3327 15.567V55.8003C73.3327 59.0003 70.7327 62.0003 67.5327 62.4003L66.4327 62.5337C59.166 63.5004 47.9659 67.2003 41.5659 70.7336C40.6993 71.2336 39.266 71.2336 38.366 70.7336L38.2326 70.6671C31.8326 67.1671 20.6661 63.5004 13.4328 62.5337L12.466 62.4003C9.26598 62.0003 6.66602 59.0003 6.66602 55.8003V15.5336C6.66602 11.5669 9.89926 8.56697 13.8659 8.9003C20.8659 9.46697 31.4659 13.0004 37.3993 16.7004L38.2326 17.2003C39.1993 17.8003 40.7994 17.8003 41.7661 17.2003L42.3327 16.8337C44.4327 15.5337 47.0993 14.2336 49.9993 13.067V26.667L56.666 22.2336L63.3327 26.667V9.26713C64.2327 9.10046 65.0994 9.00034 65.8994 8.93367H66.0994C70.0661 8.60034 73.3327 11.567 73.3327 15.567Z" stroke="#0C4D88" stroke-width="1.5" stroke-linecap="round" stroke-linejoin="round"/>
<path d="M40 18.2998V68.2998" stroke="#0C4D88" stroke-width="1.5" stroke-linecap="round" stroke-linejoin="round"/>
<path d="M63.3333 9.2666V26.6665L56.6667 22.2331L50 26.6665V13.0664C54.3667 11.3331 59.2333 9.93327 63.3333 9.2666Z" stroke="#0C4D88" stroke-width="1.5" stroke-linecap="round" stroke-linejoin="round"/>
</svg>
