<svg width="81" height="80" viewBox="0 0 81 80" fill="none" xmlns="http://www.w3.org/2000/svg">
<path d="M47.416 20.6668V33.3337C38.116 33.5003 34.2493 37.367 34.0827 46.667H21.416C11.416 46.667 7.41602 42.6672 7.41602 32.6672V20.6668C7.41602 10.6668 11.416 6.66699 21.416 6.66699H33.416C43.416 6.66699 47.416 10.6668 47.416 20.6668Z" stroke="#0C4D88" stroke-width="1.5" stroke-linecap="round" stroke-linejoin="round"/>
<path d="M23.9506 19.5666C22.184 18.3666 19.8507 18.3667 18.084 19.6333" stroke="#0C4D88" stroke-width="1.5" stroke-miterlimit="10" stroke-linecap="round" stroke-linejoin="round"/>
<path d="M37.2827 19.5666C35.516 18.3666 33.1827 18.3667 31.416 19.6333" stroke="#0C4D88" stroke-width="1.5" stroke-miterlimit="10" stroke-linecap="round" stroke-linejoin="round"/>
<path d="M27.9494 38.0666H20.216C19.216 38.0666 18.416 37.2664 18.416 36.2664C18.416 31.2998 22.4494 27.2666 27.416 27.2666C29.5494 27.2666 31.516 27.9998 33.0493 29.2332" stroke="#0C4D88" stroke-width="1.5" stroke-miterlimit="10" stroke-linecap="round" stroke-linejoin="round"/>
<path d="M74.084 47.3328V59.3332C74.084 69.3332 70.084 73.333 60.084 73.333H48.084C38.084 73.333 34.084 69.3332 34.084 59.3332V46.6663C34.2507 37.3663 38.1173 33.4997 47.4173 33.333H60.084C70.084 33.333 74.084 37.3328 74.084 47.3328Z" stroke="#0C4D88" stroke-width="1.5" stroke-linecap="round" stroke-linejoin="round"/>
<path d="M50.6167 45.3997C48.85 46.5997 46.5167 46.5997 44.75 45.333" stroke="#0C4D88" stroke-width="1.5" stroke-miterlimit="10" stroke-linecap="round" stroke-linejoin="round"/>
<path d="M63.9506 45.3997C62.184 46.5997 59.8507 46.5997 58.084 45.333" stroke="#0C4D88" stroke-width="1.5" stroke-miterlimit="10" stroke-linecap="round" stroke-linejoin="round"/>
<path d="M46.884 53.9336H61.284C62.284 53.9336 63.084 54.7333 63.084 55.7333C63.084 60.7 59.0507 64.7336 54.084 64.7336C49.1173 64.7336 45.084 60.7 45.084 55.7333C45.084 54.7333 45.884 53.9336 46.884 53.9336Z" stroke="#0C4D88" stroke-width="1.5" stroke-miterlimit="10" stroke-linecap="round" stroke-linejoin="round"/>
</svg>
