<svg width="40" height="40" viewBox="0 0 40 40" fill="none" xmlns="http://www.w3.org/2000/svg">
<path d="M33.3327 16.6667V10.3333C33.3327 9.22876 32.4373 8.33333 31.3327 8.33333H8.66602C7.56145 8.33333 6.66602 9.22876 6.66602 10.3333V16.6667M33.3327 16.6667H6.66602M33.3327 16.6667V19.5833M6.66602 16.6667V33C6.66602 34.1046 7.56145 35 8.66602 35H18.3327M13.3327 5V11.6667M26.666 5V11.6667" stroke="#0C4D88" stroke-width="1.5" stroke-linecap="round"/>
<path d="M28.0563 22.333C28.1588 22.0866 28.5079 22.0866 28.6103 22.333L30.4672 26.7973C30.5104 26.9012 30.608 26.9722 30.7202 26.9812L35.5398 27.3675C35.8058 27.3889 35.9137 27.7208 35.711 27.8944L32.039 31.0399C31.9535 31.1131 31.9162 31.228 31.9423 31.3374L33.0642 36.0405C33.1261 36.3001 32.8437 36.5053 32.616 36.3662L28.4897 33.8458C28.3937 33.7872 28.273 33.7872 28.177 33.8458L24.0507 36.3662C23.8229 36.5053 23.5406 36.3001 23.6025 36.0405L24.7244 31.3374C24.7505 31.228 24.7131 31.1131 24.6277 31.0399L20.9556 27.8944C20.753 27.7208 20.8608 27.3889 21.1268 27.3675L25.9465 26.9812C26.0586 26.9722 26.1563 26.9012 26.1995 26.7973L28.0563 22.333Z" fill="#0C4D88"/>
</svg>
