<svg width="22" height="22" viewBox="0 0 22 22" fill="none" xmlns="http://www.w3.org/2000/svg">
<path d="M11 1C9.68678 1 8.38643 1.25866 7.17317 1.7612C5.95992 2.26375 4.85753 3.00034 3.92894 3.92893C2.05358 5.80429 1.00002 8.34782 1.00002 11C0.995856 13.3026 1.765 15.5399 3.18412 17.3532C4.60325 19.1664 6.59015 20.4507 8.82627 21V18.3912H7.95668C5.67853 18.3912 4.87826 14.9129 3.60877 14.9129C6.03489 14.9129 6.50456 16.6521 7.95668 16.6521C8.07459 16.6678 8.19453 16.6561 8.3072 16.618C8.41987 16.5798 8.52223 16.5162 8.60634 16.4321C8.69045 16.348 8.75405 16.2457 8.79219 16.133C8.83033 16.0203 8.84199 15.9004 8.82627 15.7825V15.4781C6.29572 14.7671 4.47835 12.8693 4.47835 10.565C4.49872 9.36627 4.9889 8.22349 5.84338 7.38257C5.62553 6.91249 5.54503 6.3904 5.61115 5.87653C5.67727 5.36266 5.88732 4.87795 6.21707 4.47833C7.01276 4.717 7.72843 5.16784 8.28727 5.78248C10.0399 5.14602 11.9605 5.14602 13.7132 5.78248C14.2719 5.16791 14.9874 4.71707 15.7829 4.47833C16.1127 4.87795 16.3227 5.36266 16.3889 5.87653C16.455 6.3904 16.3745 6.91249 16.1566 7.38257C17.0112 8.2236 17.5014 9.36656 17.5217 10.5654C17.5217 12.948 15.5305 14.9133 12.8085 15.5741C13.0889 16.1834 13.2144 16.8526 13.1737 17.5221V21C15.4098 20.4507 17.3968 19.1664 18.8159 17.3532C20.235 15.5399 21.0041 13.3026 21 11C21 8.34782 19.9464 5.80429 18.0711 3.92893C16.1957 2.05357 13.6522 1 11 1Z" stroke="#231F20" stroke-width="1.3" stroke-linecap="round" stroke-linejoin="round"/>
</svg>
