<svg width="81" height="80" viewBox="0 0 81 80" fill="none" xmlns="http://www.w3.org/2000/svg">
<path d="M73.5827 43.3337V30.0003C73.5827 13.3337 66.916 6.66699 50.2493 6.66699H30.2493C13.5827 6.66699 6.91602 13.3337 6.91602 30.0003V50.0003C6.91602 66.667 13.5827 73.3337 30.2493 73.3337H43.5827" stroke="#0C4D88" stroke-width="1.5" stroke-linecap="round" stroke-linejoin="round"/>
<path d="M24.6836 48.3002L32.6169 38.0002C33.7503 36.5335 35.8503 36.2669 37.317 37.4002L43.417 42.2002C44.8837 43.3336 46.9836 43.0669 48.1169 41.6336L55.817 31.7002" stroke="#0C4D88" stroke-width="1.5" stroke-linecap="round" stroke-linejoin="round"/>
<path d="M65.1828 52.7338L66.1161 54.6338C66.5828 55.5671 67.7494 56.4338 68.7827 56.6338L70.0494 56.8338C73.8494 57.4671 74.7494 60.2671 72.0161 63.0338L70.8494 64.2004C70.0827 65.0004 69.6494 66.5338 69.8828 67.6004L70.0494 68.3005C71.0827 72.9005 68.6494 74.6671 64.6494 72.2671L63.7827 71.7671C62.7494 71.1671 61.0827 71.1671 60.0494 71.7671L59.1827 72.2671C55.1494 74.7004 52.7161 72.9005 53.7827 68.3005L53.9493 67.6004C54.1827 66.5338 53.7494 65.0004 52.9828 64.2004L51.8161 63.0338C49.0827 60.2671 49.9827 57.4671 53.7827 56.8338L55.0494 56.6338C56.0494 56.4671 57.2494 55.5671 57.716 54.6338L58.6494 52.7338C60.4494 49.1005 63.3828 49.1005 65.1828 52.7338Z" stroke="#0C4D88" stroke-width="1.5" stroke-linecap="round" stroke-linejoin="round"/>
</svg>
