<svg width="37" height="36" viewBox="0 0 37 36" fill="none" xmlns="http://www.w3.org/2000/svg">
<path d="M12.75 22.875C12.1287 22.875 11.625 23.3787 11.625 24C11.625 24.6213 12.1287 25.125 12.75 25.125H24.75C25.3713 25.125 25.875 24.6213 25.875 24C25.875 23.3787 25.3713 22.875 24.75 22.875H12.75Z" fill="#0C4D88"/>
<path fill-rule="evenodd" clip-rule="evenodd" d="M8.6321 3.375C8.09034 3.37497 7.60991 3.37495 7.21113 3.41154C6.78286 3.45084 6.34808 3.53889 5.92986 3.77626C5.24137 4.16702 4.72371 4.79831 4.42465 5.5302C4.251 5.95519 4.18503 6.39561 4.15446 6.85834C4.12498 7.30448 4.12499 7.84986 4.125 8.50385V18.0075C4.125 19.3992 4.125 21.2092 4.17135 22.8146C4.19456 23.6183 4.22971 24.3841 4.28381 25.0282C4.33502 25.6379 4.41041 26.2445 4.54714 26.6653C5.40031 29.2911 7.45895 31.3497 10.0847 32.2029C11.386 32.6257 12.9478 32.6254 15.5073 32.625H21.9927C24.5522 32.6254 26.114 32.6257 27.4153 32.2029C30.041 31.3497 32.0997 29.2911 32.9529 26.6653C33.3757 25.364 33.3754 23.8022 33.375 21.2428V20.7573C33.3754 18.1978 33.3757 16.636 32.9529 15.3347C32.0997 12.709 30.041 10.6503 27.4153 9.79714C27.0634 9.68281 26.5547 9.61907 26.0561 9.57405C25.5208 9.52572 24.8724 9.48976 24.1727 9.46264C22.7714 9.40833 21.1176 9.38776 19.6563 9.37989C18.9508 9.37609 18.1848 8.77444 17.7653 7.74824L17.7512 7.71379C17.1305 6.19468 16.0738 4.92811 14.7174 4.15824C13.9627 3.72988 13.1416 3.54634 12.193 3.45929C11.2742 3.37498 10.1407 3.37499 8.73259 3.375L8.6321 3.375ZM7.04047 5.73305C7.07092 5.71577 7.15126 5.67649 7.41674 5.65213C7.70033 5.62611 8.07623 5.625 8.67857 5.625C10.1533 5.625 11.1835 5.62611 11.9874 5.69988C12.7732 5.77199 13.2398 5.90676 13.6068 6.11503C14.4769 6.6089 15.2169 7.45977 15.6684 8.56486L15.6826 8.59952C16.2808 10.0631 17.66 11.6192 19.6442 11.6299C21.099 11.6377 22.7227 11.6581 24.0855 11.711C24.7679 11.7374 25.3732 11.7715 25.8538 11.8149C26.3711 11.8616 26.6407 11.9113 26.72 11.937C28.6608 12.5676 30.1824 14.0892 30.813 16.03C31.1111 16.9476 31.125 18.1205 31.125 21C31.125 23.8795 31.1111 25.0524 30.813 25.97C30.1824 27.9108 28.6608 29.4324 26.72 30.063C25.8024 30.3611 24.6295 30.375 21.75 30.375H15.75C12.8705 30.375 11.6976 30.3611 10.78 30.063C8.83923 29.4324 7.31762 27.9108 6.68702 25.97C6.6402 25.8259 6.57794 25.4593 6.52591 24.8398C6.47677 24.2547 6.4431 23.5352 6.42042 22.7497C6.37508 21.1796 6.375 19.3992 6.375 18V8.54082C6.375 7.84039 6.37557 7.36976 6.39956 7.00666C6.42301 6.65175 6.46507 6.48506 6.50749 6.38126C6.63734 6.06345 6.83831 5.8478 7.04047 5.73305Z" fill="#0C4D88"/>
</svg>
