<svg width="40" height="40" viewBox="0 0 40 40" fill="none" xmlns="http://www.w3.org/2000/svg">
<path d="M12.5 8.33301H26.6667C28.0474 8.33301 29.1667 9.4523 29.1667 10.833V13.333" stroke="#0C4D88" stroke-width="1.5" stroke-linecap="round" stroke-linejoin="round"/>
<path d="M32.2127 34.7137L31.6824 34.1834L32.2127 34.7137ZM30.832 4.08301C31.2462 4.08301 31.582 3.74722 31.582 3.33301C31.582 2.91879 31.2462 2.58301 30.832 2.58301V3.33301V4.08301ZM34.1654 16.6663H33.4154V23.333H34.1654H34.9154V16.6663H34.1654ZM20.832 36.6663V35.9163H19.1654V36.6663V37.4163H20.832V36.6663ZM5.83203 23.333H6.58203V8.33301H5.83203H5.08203V23.333H5.83203ZM19.1654 36.6663V35.9163C16.0015 35.9163 13.704 35.9147 11.9502 35.679C10.2179 35.4461 9.12872 34.9971 8.31498 34.1834L7.78465 34.7137L7.25432 35.244C8.39321 36.3829 9.85169 36.9103 11.7503 37.1656C13.6273 37.4179 16.0439 37.4163 19.1654 37.4163V36.6663ZM5.83203 23.333H5.08203C5.08203 26.4545 5.08044 28.8711 5.3328 30.7481C5.58806 32.6467 6.11544 34.1052 7.25432 35.244L7.78465 34.7137L8.31498 34.1834C7.50125 33.3697 7.05232 32.2805 6.81942 30.5482C6.58362 28.7944 6.58203 26.4969 6.58203 23.333H5.83203ZM34.1654 23.333H33.4154C33.4154 26.4969 33.4138 28.7944 33.178 30.5482C32.9451 32.2805 32.4961 33.3697 31.6824 34.1834L32.2127 34.7137L32.7431 35.244C33.882 34.1052 34.4093 32.6467 34.6646 30.7481C34.917 28.8711 34.9154 26.4545 34.9154 23.333H34.1654ZM20.832 36.6663V37.4163C23.9535 37.4163 26.3701 37.4179 28.2471 37.1656C30.1457 36.9103 31.6042 36.3829 32.7431 35.244L32.2127 34.7137L31.6824 34.1834C30.8687 34.9971 29.7795 35.4461 28.0472 35.679C26.2934 35.9147 23.9959 35.9163 20.832 35.9163V36.6663ZM30.832 3.33301V2.58301H10.832V3.33301V4.08301H30.832V3.33301ZM10.832 13.333V14.083H30.832V13.333V12.583H10.832V13.333ZM5.83203 8.33301H5.08203C5.08203 11.5086 7.65639 14.083 10.832 14.083V13.333V12.583C8.48482 12.583 6.58203 10.6802 6.58203 8.33301H5.83203ZM10.832 3.33301V2.58301C7.65639 2.58301 5.08203 5.15737 5.08203 8.33301H5.83203H6.58203C6.58203 5.9858 8.48482 4.08301 10.832 4.08301V3.33301ZM34.1654 16.6663H34.9154C34.9154 14.4112 33.0872 12.583 30.832 12.583V13.333V14.083C32.2588 14.083 33.4154 15.2396 33.4154 16.6663H34.1654Z" fill="#0C4D88"/>
<path d="M25 21.667L15 21.667" stroke="#0C4D88" stroke-width="1.5" stroke-linecap="round" stroke-linejoin="round"/>
<path d="M20 28.333L15 28.333" stroke="#0C4D88" stroke-width="1.5" stroke-linecap="round" stroke-linejoin="round"/>
</svg>
