<svg width="25" height="24" viewBox="0 0 25 24" fill="none" xmlns="http://www.w3.org/2000/svg">
<path d="M7.5 18.4297L11.5 18.4297L15.95 21.3897C16.61 21.8297 17.5 21.3598 17.5 20.5598L17.5 18.4297C20.5 18.4297 22.5 16.4297 22.5 13.4297L22.5 7.42969C22.5 4.42969 20.5 2.42969 17.5 2.42969L7.5 2.42969C4.5 2.42969 2.5 4.42969 2.5 7.42969L2.5 13.4298C2.5 16.4298 4.5 18.4298 7.5 18.4297Z" stroke="#005A9B" stroke-opacity="0.8" stroke-width="1.5" stroke-miterlimit="10" stroke-linecap="round" stroke-linejoin="round"/>
<path d="M12.5002 11.3604L12.5002 11.1504C12.5002 10.4704 12.0802 10.1104 11.6602 9.82037C11.2502 9.54037 10.8402 9.18039 10.8402 8.52039C10.8402 7.60039 11.5802 6.86035 12.5002 6.86035C13.4202 6.86035 14.1602 7.60039 14.1602 8.52039" stroke="#005A9B" stroke-opacity="0.8" stroke-width="1.5" stroke-linecap="round" stroke-linejoin="round"/>
<path d="M12.5045 13.75L12.4955 13.75" stroke="#005A9B" stroke-opacity="0.8" stroke-width="1.5" stroke-linecap="round" stroke-linejoin="round"/>
</svg>
