<svg width="24" height="24" viewBox="0 0 24 24" fill="none" xmlns="http://www.w3.org/2000/svg">
<path d="M2.91984 8.58004L2.91984 15.42C2.91984 16.54 3.51984 17.58 4.48984 18.15L10.4298 21.58C11.3998 22.14 12.5998 22.14 13.5798 21.58L19.5198 18.15C20.4898 17.59 21.0898 16.55 21.0898 15.42L21.0898 8.58003C21.0898 7.46003 20.4898 6.41999 19.5198 5.84999L13.5798 2.42C12.6098 1.86 11.4098 1.86 10.4298 2.42L4.48984 5.84999C3.51984 6.41999 2.91984 7.45004 2.91984 8.58004Z" stroke="#F8F8F9" stroke-width="1.5" stroke-linecap="round" stroke-linejoin="round"/>
<path d="M12.0001 10.9998C10.7133 10.9998 9.67008 9.95662 9.67008 8.6698C9.67008 7.38298 10.7133 6.33984 12.0001 6.33984C13.2869 6.33984 14.3301 7.38298 14.3301 8.6698C14.3301 9.95662 13.2869 10.9998 12.0001 10.9998Z" stroke="#F8F8F9" stroke-width="1.5" stroke-linecap="round" stroke-linejoin="round"/>
<path d="M8 16.6584C8 14.8584 9.79 13.3984 12 13.3984C14.21 13.3984 16 14.8584 16 16.6584" stroke="#F8F8F9" stroke-width="1.5" stroke-linecap="round" stroke-linejoin="round"/>
</svg>
