<svg width="24" height="25" viewBox="0 0 24 25" fill="none" xmlns="http://www.w3.org/2000/svg">
<g clip-path="url(#clip0_8187_15386)">
<path d="M16.75 14.0752C17 14.2052 17.16 14.2752 17.21 14.3752C17.27 14.4852 17.25 14.9852 17 15.5552C16.8 16.1152 15.76 16.6552 15.3 16.6752C14.84 16.6952 14.83 17.0352 12.34 15.9452C9.85001 14.8552 8.35001 12.1952 8.23001 12.0252C8.11001 11.8552 7.27001 10.6452 7.31001 9.41523C7.36001 8.19523 8.00001 7.61523 8.26001 7.37523C8.50001 7.11523 8.77001 7.08523 8.94001 7.11523H9.41001C9.56001 7.11523 9.77001 7.05523 9.96001 7.56523L10.65 9.43523C10.71 9.56523 10.75 9.71523 10.66 9.87523L10.39 10.2852L10 10.7052C9.88001 10.8252 9.74001 10.9552 9.88001 11.2052C10 11.4652 10.5 12.2952 11.2 12.9852C12.11 13.8652 12.91 14.1552 13.15 14.2852C13.39 14.4252 13.54 14.4052 13.69 14.2452L14.5 13.3052C14.69 13.0552 14.85 13.1152 15.08 13.1952L16.75 14.0752ZM12 2.11523C13.3132 2.11523 14.6136 2.37389 15.8268 2.87644C17.0401 3.37899 18.1425 4.11558 19.0711 5.04417C19.9997 5.97275 20.7363 7.07514 21.2388 8.2884C21.7413 9.50166 22 10.802 22 12.1152C22 14.7674 20.9464 17.3109 19.0711 19.1863C17.1957 21.0617 14.6522 22.1152 12 22.1152C10.03 22.1152 8.20001 21.5452 6.65001 20.5652L2.00001 22.1152L3.55001 17.4652C2.53551 15.8654 1.99786 14.0096 2.00001 12.1152C2.00001 9.46307 3.05357 6.91953 4.92894 5.04417C6.8043 3.1688 9.34784 2.11523 12 2.11523ZM12 4.11523C9.87827 4.11523 7.84344 4.95809 6.34315 6.45838C4.84286 7.95867 4.00001 9.9935 4.00001 12.1152C4.00001 13.8352 4.54001 15.4252 5.46001 16.7252L4.50001 19.6152L7.39001 18.6552C8.73779 19.6088 10.349 20.1191 12 20.1152C14.1217 20.1152 16.1566 19.2724 17.6569 17.7721C19.1572 16.2718 20 14.237 20 12.1152C20 9.9935 19.1572 7.95867 17.6569 6.45838C16.1566 4.95809 14.1217 4.11523 12 4.11523Z" fill="#231F20"/>
</g>
<defs>
<clipPath id="clip0_8187_15386">
<rect width="24" height="24" fill="white" transform="translate(0 0.115234)"/>
</clipPath>
</defs>
</svg>
