<svg width="169" height="56" viewBox="0 0 169 56" fill="none" xmlns="http://www.w3.org/2000/svg">
<g clip-path="url(#clip0_2037_76)">
<path d="M38.9144 23.0221C38.5591 22.6607 38.1361 22.3729 37.6695 22.1751C37.2029 21.9772 36.7019 21.8733 36.1951 21.8692C35.6883 21.8651 35.1857 21.9609 34.716 22.1511C34.2463 22.3413 33.8186 22.6222 33.4575 22.9778C31.6778 24.7278 31.6539 28.2153 33.4034 30.0127C33.9364 30.5589 34.6198 30.9344 35.3667 31.0912C36.1136 31.2481 36.8903 31.1793 37.5981 30.8936C38.3083 30.5984 38.915 30.0994 39.3416 29.4594C39.7682 28.8195 39.9956 28.0675 39.9949 27.2984C39.9744 26.7545 39.9923 26.2099 40.0485 25.6686C40.0127 24.6756 39.6084 23.7315 38.9144 23.0204V23.0221Z" fill="#0C4D88"/>
<path d="M17.746 29.1095C16.8833 29.089 16.0265 29.2568 15.2352 29.6012C14.9302 29.7168 14.6578 29.9048 14.4416 30.149C14.2253 30.3932 14.0716 30.6863 13.9938 31.0031V31.0102C13.8868 31.5609 14.0031 32.1316 14.3169 32.5966C14.6307 33.0617 15.1163 33.383 15.667 33.49C16.5944 33.6312 17.5426 33.528 18.418 33.1907C19.2934 32.8534 20.0656 32.2936 20.6584 31.5666C20.7146 31.502 20.752 31.4232 20.7666 31.3388V29.1038C19.7114 29.1038 18.7285 29.0798 17.746 29.1095Z" fill="#0C4D88"/>
<path d="M28.22 0C20.8963 0.00302699 13.871 2.90306 8.67775 8.0671C3.48447 13.2311 0.544826 20.2399 0.500449 27.5635C0.500449 27.6078 0.500449 27.6522 0.500449 27.6965C0.497994 33.1766 2.12061 38.5343 5.16312 43.0921C8.20563 47.65 12.5314 51.2033 17.5933 53.3027C22.6553 55.4021 28.2261 55.9533 33.6014 54.8866C38.9766 53.8199 43.9148 51.1832 47.7915 47.3099C51.6682 43.4367 54.3093 38.5009 55.3808 33.1266C56.4523 27.7523 55.9061 22.181 53.8113 17.1172C51.7164 12.0533 48.167 7.72439 43.6119 4.6778C39.0568 1.63121 33.7005 0.0037869 28.2205 0.00133105L28.22 0ZM25.0442 36.1683C25.0442 36.6897 25.0442 36.6897 24.5122 36.6897H21.6658C21.366 36.6959 21.276 36.5758 21.2463 36.3062C21.1923 35.815 21.1133 35.3237 21.0304 34.7544C20.3684 35.5956 19.462 36.211 18.4359 36.5159C17.4272 36.8752 16.3576 37.0322 15.2883 36.9777C14.2189 36.9232 13.1708 36.6584 12.2039 36.1985C11.4106 35.8218 10.7406 35.2276 10.2718 34.485C9.80294 33.7424 9.55463 32.882 9.55571 32.0038C9.44753 29.5471 10.646 27.8455 13.0428 26.8927C14.2678 26.4205 15.5712 26.1846 16.8841 26.1975H20.4075C20.6771 26.1975 20.779 26.1377 20.779 25.8428C20.7427 25.3334 20.7671 24.8178 20.713 24.3088C20.6899 23.7312 20.4589 23.1814 20.0624 22.7607C19.6659 22.34 19.1308 22.0769 18.5556 22.0197C17.668 21.8499 16.7522 21.9013 15.8892 22.1695C15.361 22.3076 14.8849 22.5974 14.5197 23.0032C14.1545 23.4089 13.9162 23.9127 13.8342 24.4524C13.7912 24.5746 13.7614 24.7011 13.7455 24.8297H10.0124C10.156 24.1589 10.2398 23.5595 10.4318 22.9605C10.7082 21.9996 11.2262 21.1254 11.9364 20.4216C12.6465 19.7177 13.5252 19.2075 14.4886 18.9396C16.6222 18.2531 18.9196 18.2686 21.0437 18.984C22.0959 19.3072 23.0286 19.9352 23.724 20.7884C24.4194 21.6416 24.8463 22.6819 24.9507 23.7776C25.0216 24.3099 25.0536 24.8466 25.0464 25.3835L25.0442 36.1683ZM41.7023 40.3328C40.3238 41.669 38.4868 42.4279 36.5672 42.4543C34.6107 42.6383 32.6493 42.1568 31.0004 41.0879C30.3114 40.6301 29.7211 40.0391 29.2643 39.3496C28.8074 38.6601 28.4932 37.8861 28.3402 37.0732C28.2883 36.8513 28.2621 36.6241 28.2621 36.3962H31.8574C31.8747 36.4733 31.8968 36.5493 31.9234 36.6237C32.3548 38.1218 33.4694 38.8467 34.9192 39.0985C35.5683 39.2438 36.2427 39.2326 36.8866 39.0659C37.5305 38.8993 38.1256 38.5819 38.6227 38.14C39.3532 37.4576 39.8056 36.5292 39.8929 35.5334C39.9949 34.6223 39.9887 33.7054 40.0366 32.687L39.8091 32.8728C37.7116 34.8861 35.2549 35.1978 32.671 34.155C30.2444 33.1845 28.9139 31.219 28.3566 28.726C28.0537 27.529 27.9936 26.2835 28.18 25.0629C28.3663 23.8423 28.7952 22.6714 29.4415 21.6193C30.3277 20.1614 31.7269 19.0875 33.3644 18.6086C35.002 18.1297 36.7594 18.2803 38.2915 19.031C38.957 19.4382 39.596 19.8872 40.2046 20.3752L40.3722 18.6736H43.9674V34.4866C44.009 35.5641 43.8295 36.6387 43.4399 37.6442C43.0504 38.6497 42.459 39.5647 41.7023 40.3328Z" fill="#0C4D88"/>
<path d="M132.381 27.7196H121.284C121.269 28.7508 121.664 29.7459 122.382 30.4859C123.1 31.2259 124.083 31.6502 125.115 31.6655C125.192 31.6655 125.269 31.6655 125.347 31.662C126.881 31.6176 128.181 31.1047 129.002 29.7023C129.057 29.6013 129.15 29.5259 129.26 29.4926H132.256C131.984 31.0284 131.124 32.3977 129.859 33.3095C127.073 35.3889 121.038 35.6287 118.372 30.9127C116.514 27.6531 117.048 22.9734 119.636 20.4626C121.434 18.737 123.609 18.2156 126.012 18.4431C129.811 18.8088 131.956 21.559 132.333 25.0346C132.398 25.9281 132.414 26.8244 132.381 27.7196ZM128.697 24.9991C128.386 22.6382 126.935 21.4038 124.778 21.5537C122.926 21.6974 121.35 23.2913 121.392 24.9991H128.697Z" fill="#172540"/>
<path d="M168.388 29.4811C168.272 30.2207 168.012 30.9302 167.621 31.5687C167.23 32.2073 166.717 32.7624 166.111 33.2022C164.934 34.0677 163.545 34.5972 162.09 34.7344C160.636 34.8716 159.172 34.6113 157.854 33.9812C155.157 32.7841 153.834 30.5358 153.48 27.6597C153.232 25.8468 153.544 24.0015 154.373 22.3704C155.955 19.2841 159.023 18.134 162.091 18.4635C165.716 18.847 168.083 21.2979 168.46 24.9366C168.549 25.8415 168.46 26.7344 168.46 27.7298H157.393C157.394 28.3335 157.532 28.9291 157.797 29.4715C158.062 30.0139 158.447 30.489 158.922 30.8606C159.398 31.2323 159.952 31.4908 160.542 31.6167C161.133 31.7425 161.744 31.7324 162.33 31.587C162.902 31.5007 163.448 31.2881 163.928 30.9647C164.408 30.6413 164.81 30.2153 165.105 29.7174C165.136 29.66 165.179 29.6102 165.232 29.5719C165.285 29.5335 165.346 29.5075 165.41 29.4957C166.381 29.4753 167.357 29.4811 168.388 29.4811ZM164.793 25.0168C164.529 22.7042 163.043 21.4216 160.922 21.5475C159.028 21.6805 157.446 23.2615 157.482 25.0168H164.793Z" fill="#172540"/>
<path d="M90.0591 18.4315C87.9696 18.3956 85.9514 19.1912 84.4484 20.6432C82.9455 22.0953 82.0809 24.0849 82.0449 26.1745C82.0449 26.2999 82.0449 26.4254 82.0475 26.5509C82.0475 31.231 85.457 34.7003 90.0649 34.7061C94.6728 34.7119 98.0588 31.255 98.0588 26.5925C98.0588 21.9301 94.6369 18.4018 90.0591 18.4315ZM94.1336 27.5156C94.024 28.5231 93.5535 29.4567 92.8089 30.1441C92.0643 30.8315 91.096 31.2261 90.0831 31.255C89.0682 31.2258 88.0984 30.8296 87.3535 30.1397C86.6086 29.4499 86.1393 28.5133 86.0325 27.5037C85.8892 26.7729 85.9055 26.0197 86.0803 25.2958C86.2551 24.5719 86.5842 23.8943 87.0451 23.3094C87.412 22.8581 87.8752 22.4946 88.4009 22.2457C88.9266 21.9968 89.5014 21.8688 90.0831 21.8712C90.6652 21.8695 91.2402 21.9984 91.766 22.2483C92.2917 22.4982 92.7547 22.8628 93.121 23.3152C93.5818 23.9014 93.9107 24.5801 94.0855 25.305C94.2602 26.0298 94.2766 26.7838 94.1336 27.5156Z" fill="#172540"/>
<path d="M80.2741 24.6577H76.8464C76.3791 22.6741 74.4496 21.4517 72.1844 21.841C71.5989 21.9179 71.0437 22.1466 70.5739 22.5044C70.104 22.8621 69.7359 23.3365 69.5061 23.8805C69.1121 24.7248 68.9079 25.6451 68.9079 26.5768C68.9079 27.5085 69.1121 28.4289 69.5061 29.2731C69.8082 29.9592 70.3171 30.5336 70.9617 30.9161C71.6064 31.2987 72.3544 31.4702 73.1013 31.4066C73.8772 31.399 74.6322 31.1545 75.2651 30.7057C75.898 30.257 76.3786 29.6255 76.6425 28.8958C76.6756 28.7485 76.7632 28.6191 76.8876 28.5335C77.0121 28.4479 77.1643 28.4125 77.3137 28.4343H80.2319C80.0941 29.8423 79.5438 31.1784 78.65 32.2751C77.919 33.1774 76.9431 33.8495 75.8395 34.2109C74.0941 34.8241 72.2044 34.8971 70.4167 34.4206C69.3759 34.1474 68.4153 33.6298 67.6149 32.9106C66.8144 32.1914 66.1972 31.2915 65.8146 30.2858C64.8772 28.0894 64.7981 25.6212 65.593 23.3693C66.7377 20.0077 69.7397 18.1739 73.4307 18.4675C75.57 18.6412 77.4516 19.3307 78.8238 21.0563C79.6459 22.0909 80.1497 23.3421 80.2741 24.6577Z" fill="#172540"/>
<path d="M113.638 34.6702H109.761V11.3009H113.638V34.6702Z" fill="#172540"/>
<path d="M101.494 11.277H105.425C105.425 11.4689 105.461 11.6547 105.461 11.8343V34.0752C105.461 34.5966 105.299 34.7345 104.808 34.7105C103.915 34.6658 103.021 34.6658 102.129 34.7105C101.572 34.7407 101.47 34.5332 101.476 34.0216V11.277H101.494Z" fill="#172540"/>
<path d="M150.358 18.7973H146.799C146.733 19.3963 146.673 19.9656 146.619 20.4932C146.014 20.0138 145.38 19.5734 144.719 19.1746C143.198 18.4271 141.452 18.2752 139.825 18.7486C138.198 19.222 136.806 20.2865 135.923 21.7333C135.279 22.7788 134.852 23.943 134.667 25.1568C134.481 26.3705 134.542 27.6092 134.844 28.7992C135.395 31.282 136.72 33.2328 139.135 34.1918C141.717 35.2284 144.15 34.9167 146.229 32.9154C146.273 32.8737 146.317 32.8435 146.456 32.7296C146.408 33.7365 146.42 34.6534 146.312 35.5583C146.228 36.5489 145.78 37.4732 145.054 38.1528C144.558 38.5919 143.965 38.9072 143.323 39.0728C142.681 39.2384 142.01 39.2496 141.363 39.1056C140.673 39.0466 140.017 38.7795 139.482 38.3397C138.947 37.9 138.558 37.3083 138.367 36.6427C138.307 36.433 138.307 36.421 138.307 36.421H134.712C134.71 36.6466 134.735 36.8716 134.783 37.0919C134.939 37.8999 135.254 38.6689 135.709 39.354C136.165 40.0391 136.753 40.6266 137.438 41.0821C139.077 42.147 141.028 42.6264 142.975 42.4424C144.883 42.4163 146.71 41.6616 148.08 40.3328C148.832 39.5677 149.42 38.6569 149.807 37.6564C150.195 36.6559 150.374 35.5867 150.333 34.5146V19.1866C150.372 19.0606 150.38 18.9272 150.358 18.7973ZM146.421 27.3839C146.414 28.1445 146.182 28.8859 145.754 29.515C145.327 30.1442 144.723 30.6329 144.019 30.9198C143.314 31.2067 142.541 31.279 141.796 31.1275C141.05 30.976 140.366 30.6076 139.83 30.0685C138.086 28.2707 138.116 24.8071 139.884 23.0634C140.305 22.6508 140.815 22.3406 141.375 22.1565C141.935 21.9724 142.529 21.9194 143.113 22.0016C143.697 22.0838 144.254 22.299 144.741 22.6306C145.229 22.9623 145.633 23.4014 145.924 23.9142C146.241 24.4726 146.418 25.0998 146.439 25.7417C146.397 26.0357 146.421 27.1321 146.421 27.3839Z" fill="#172540"/>
</g>
<defs>
<clipPath id="clip0_2037_76">
<rect width="168" height="55.4152" fill="white" transform="translate(0.5)"/>
</clipPath>
</defs>
</svg>
